<?xml version="1.0" encoding="utf-8"?>
<!-- Generator: Adobe Illustrator 22.0.1, SVG Export Plug-In . SVG Version: 6.00 Build 0)  -->
<svg version="1.1" id="Layer_1" xmlns="http://www.w3.org/2000/svg" xmlns:xlink="http://www.w3.org/1999/xlink" x="0px" y="0px"
	 viewBox="0 0 841.9 595.3" style="enable-background:new 0 0 841.9 595.3;" xml:space="preserve">
<style type="text/css">
	.st0{fill:none;stroke:#E86A4C;stroke-width:2;stroke-miterlimit:10;}
	.st1{fill:none;stroke:#BB6DA9;stroke-width:2;stroke-miterlimit:10;}
	.st2{fill:none;stroke:#4E99D4;stroke-width:2;stroke-miterlimit:10;}
	.st3{fill:none;stroke:#E5C74E;stroke-width:2;stroke-miterlimit:10;}
	.st4{fill:none;stroke:#7BC48E;stroke-width:2;stroke-miterlimit:10;}
	.st5{fill:none;stroke:#9B7BB6;stroke-width:2;stroke-miterlimit:10;}
	.st6{fill:none;stroke:#1C499D;stroke-width:2;stroke-miterlimit:10;}
	.st7{fill:none;stroke:#E83510;stroke-width:2;stroke-miterlimit:10;}
	.st8{fill:none;stroke:#6DC096;stroke-width:2;stroke-miterlimit:10;}
	.st9{fill:none;stroke:#55322A;stroke-width:2;stroke-miterlimit:10;}
</style>
<g>
	<path class="st0" d="M131.5,199.4l-17,25.7v30.8H96.9v-30.8l-17-25.7h17.6l8.3,11.2l8.2-11.2H131.5z"/>
	<path class="st1" d="M184.3,230.4c0,3-0.1,5.5-0.4,7.7c-0.3,2.2-1,4.5-2.1,7c-1.6,3.6-4.1,6.5-7.4,8.7c-3.3,2.1-7,3.2-10.9,3.2
		c-4,0-7.7-1.1-11-3.2s-5.8-5-7.4-8.7c-1.1-2.5-1.8-4.9-2.1-7c-0.3-2.2-0.4-4.7-0.4-7.7v-31h17.2v34.2c0,2.2,0.3,3.7,0.8,4.7
		c0.5,1,1.5,1.4,2.9,1.4c1.4,0,2.4-0.5,2.8-1.5c0.5-1,0.7-2.5,0.7-4.6v-34.2h17.2V230.4z"/>
	<path class="st2" d="M241.8,255.9h-17.2v-34.2c0-4.1-1.3-6.2-3.8-6.2c-1.4,0-2.4,0.5-2.8,1.5c-0.4,1-0.7,2.5-0.7,4.7v34.2h-17.2
		v-31.7c0-3.4,0.2-6.1,0.6-8.2c0.4-2.1,1-4,1.9-5.9c1.6-3.6,4.1-6.5,7.4-8.6c3.4-2.2,7-3.3,11-3.3c7,0,12.6,2.9,16.6,8.8
		c1.8,2.6,2.9,5.5,3.5,8.9c0.4,2.4,0.7,5.7,0.7,9.8V255.9z"/>
	<path class="st3" d="M317.3,216.4c-1-0.4-1.9-0.7-2.6-0.9c-0.7-0.2-1.5-0.3-2.3-0.3c-1.3,0-2.4,0.4-3.2,1.2
		c-0.8,0.8-1.2,1.8-1.2,3.1c0,0.9,0.3,1.9,0.8,3c0.1,0.2,0.7,1.2,1.9,3.1c1.2,1.9,2,3.9,2.6,5.9c0.6,2,0.9,4,0.9,6.1
		c0,5.7-2,10.3-5.9,14c-4,3.7-8.8,5.5-14.4,5.5c-1.9,0-4.2-0.3-6.8-1V240c1.4,0.3,2.4,0.4,3.2,0.4c3.1,0,4.6-1.4,4.6-4.2
		c0-0.9-0.1-1.7-0.4-2.3c-0.2-0.6-0.9-1.9-2.1-3.7c-1.9-3-3.2-5.3-3.7-6.9c-0.5-1.6-0.8-3.5-0.8-5.5c0-5.2,2-9.7,5.9-13.6
		c4-3.9,8.7-5.9,14.4-5.9c2.7,0,5.7,0.6,9,1.7V216.4z"/>
	<path class="st4" d="M389.4,227.7c0,3.4-0.6,6.6-1.7,9.8c-1.2,3.2-2.9,6.1-5.1,8.8c-2.9,3.5-6.4,6.1-10.5,8
		c-4.1,1.8-8.5,2.7-13.3,2.7c-3.5,0-6.9-0.6-10.2-1.7c-3.3-1.1-6.3-2.7-9.1-4.9c-3.6-2.8-6.3-6.2-8.3-10.1c-2-4-2.9-8.2-2.9-12.6
		c0-8,3-14.9,9-20.7c2.8-2.7,6.1-4.9,9.9-6.4s7.7-2.3,11.6-2.3c4.2,0,8.1,0.7,11.7,2.2s7,3.6,10,6.5
		C386.4,212.8,389.4,219.7,389.4,227.7z M372.1,227.7c0-3.5-1.3-6.5-3.9-9c-2.6-2.5-5.7-3.8-9.4-3.8c-3.7,0-6.8,1.3-9.4,3.8
		c-2.6,2.5-3.9,5.5-3.9,9.1c0,3.5,1.3,6.6,3.9,9c2.6,2.5,5.7,3.7,9.5,3.7c3.7,0,6.9-1.2,9.4-3.7
		C370.9,234.3,372.1,231.3,372.1,227.7z"/>
	<path class="st5" d="M481.1,199.4l-17,25.7v30.8h-17.6v-30.8l-17-25.7h17.6l8.3,11.2l8.2-11.2H481.1z"/>
	<path class="st6" d="M524.9,255.9h-12.2c-2.6,0-4.9-0.1-6.6-0.4c-1.8-0.3-3.6-0.9-5.6-1.9c-2.8-1.4-4.9-3.3-6.4-5.6
		c-1.5-2.3-2.2-4.7-2.2-7.3v-21.2c0-4,0.3-6.9,0.8-8.8c0.8-2.8,2.6-5.3,5.3-7.4c1.8-1.4,4-2.4,6.6-3.1c2.6-0.6,5.6-0.9,9-0.9h11.3
		v16.5h-11.2c-1.2,0-2.1,0.2-2.6,0.5c-0.6,0.3-0.8,1-0.8,2.1c0,1.9,1.2,2.9,3.5,2.9h10.5V234H512c-1.2,0-2.1,0.2-2.6,0.5
		c-0.5,0.3-0.8,1-0.8,2.1c0,1.9,1.1,2.9,3.4,2.9h12.9V255.9z"/>
	<path class="st7" d="M599.1,227.7c0,3.4-0.6,6.6-1.7,9.8c-1.2,3.2-2.9,6.1-5.1,8.8c-2.9,3.5-6.4,6.1-10.5,8
		c-4.1,1.8-8.5,2.7-13.3,2.7c-3.5,0-6.9-0.6-10.2-1.7c-3.3-1.1-6.3-2.7-9.1-4.9c-3.6-2.8-6.3-6.2-8.3-10.1c-2-4-2.9-8.2-2.9-12.6
		c0-8,3-14.9,9-20.7c2.8-2.7,6.1-4.9,9.9-6.4c3.8-1.5,7.7-2.3,11.6-2.3c4.2,0,8.1,0.7,11.7,2.2c3.6,1.5,7,3.6,10,6.5
		C596.1,212.8,599.1,219.7,599.1,227.7z M581.9,227.7c0-3.5-1.3-6.5-3.9-9c-2.6-2.5-5.7-3.8-9.4-3.8c-3.7,0-6.8,1.3-9.5,3.8
		c-2.6,2.5-3.9,5.5-3.9,9.1c0,3.5,1.3,6.6,3.9,9c2.6,2.5,5.7,3.7,9.5,3.7c3.7,0,6.9-1.2,9.4-3.7
		C580.6,234.3,581.9,231.3,581.9,227.7z"/>
	<path class="st8" d="M654.7,255.9h-17.2v-34.2c0-4.1-1.3-6.2-3.8-6.2c-1.4,0-2.4,0.5-2.8,1.5c-0.4,1-0.7,2.5-0.7,4.7v34.2H613
		v-31.7c0-3.4,0.2-6.1,0.6-8.2c0.4-2.1,1-4,1.9-5.9c1.6-3.6,4.1-6.5,7.4-8.6c3.4-2.2,7-3.3,11-3.3c7,0,12.6,2.9,16.6,8.8
		c1.8,2.6,2.9,5.5,3.5,8.9c0.4,2.4,0.7,5.7,0.7,9.8V255.9z"/>
	<path class="st9" d="M719.1,237.1c0,5.4-2.1,10-6.2,14c-4.2,3.9-9.4,5.9-15.7,5.9c-7.6,0-14.2-2.8-19.8-8.5
		c-5.8-5.9-8.7-12.8-8.7-20.8c0-8.1,3-15,8.9-20.7c5.9-5.8,12.9-8.6,20.8-8.6c1.4,0,3,0.1,4.6,0.4c1.7,0.3,3.3,0.6,5,1.1v18
		c-2.8-1.3-5.2-1.9-7.4-1.9c-3.9,0-7.1,1.2-9.7,3.5c-2.5,2.3-3.8,5.2-3.8,8.7c0,3.6,1.2,6.5,3.6,8.8c2.4,2.3,5.5,3.4,9.2,3.4
		c2.6,0,4-0.7,4-2.1c0-1.2-1.3-1.7-4-1.7h-3v-12.8h16.8C717.3,228.4,719.1,232.8,719.1,237.1z"/>
</g>
</svg>
